► Sengoku Basara II (2 Temporada)◄


Sinopsis:
Una vez derrotado el poderoso Oda Nobunaga, las disensiones entre los distintos daimios de las regiones niponas continúan. Sin embargo, en esta lucha por el poder absoluto aparece un nuevo personaje, Toyotomi Hideyoshi, obsesionado al igual que Oda Nobunaga por someter Japón a sus designios. Este señor de la guerra viene acompañado por Takenaka Shigeharu Hanbei, su lugarteniente, un joven espadachín que defenderá a capa y espada los intereses de su señor.

Aprovechándose de la situación generada por las diferentes facciones enfrentadas, Takeda, Uesugi, Date, etc., Toyotomi desea tomar el mando del país y erigirse como nuevo shogun, pero eso es algo que el resto de los clanes no permitirá, y al frente de esta fuerte oposición estarán Date Masamune y Sanada Yukimura, como vanguardia de los clanes Date y Takeda. Maeda Keiji, se verá entre la espada y la pared, e intentará que la situación no desemboque en otra encarnizada y sangrienta guerra sin fin.


→ Titulo: Sengoku Basara II (戦国 BASARA 弐)
→ Categoria: Serie
→ Genero: Accion, Comedia, Samurai, Shonen
→ Estudio: Production I.G
→ Episodios: 12
→ Año: 2010
→ Fansub: Athena no Seinto
→ Idioma: Japones
→ Subtitulos: Español
→ Formato: MP4
→ Resolución: 848x480
→ Duración: 24 Min (c/u)
→ Aspecto: 16:9
→ Peso Aprox: 70 Mb
→ Servidor: Torrent (P2P)





►General
 Format                                   : MPEG-4
 Format profile                           : Base Media 
 Codec ID                                 : isom
 File size                                : 71.1 MiB
 Duration                                 : 24mn 30s
 Overall bit rate mode                    : Variable
 Overall bit rate                         : 406 Kbps



 ▼Video
  ID                                       : 1
  Format                                   : AVC
  Format/Info                              : Advanced Video Codec
  Format profile                           : High@L4.1
  Format settings, CABAC                   : Yes
  Format settings, ReFrames                : 3 frames
  Codec ID                                 : avc1
  Codec ID/Info                            : Advanced Video Coding
  Duration                                 : 24mn 29s
  Duration_LastFrame                       : 42ms
  Bit rate                                 : 364 Kbps
  Maximum bit rate                         : 2 360 Kbps
  Width                                    : 848 pixels
  Height                                   : 480 pixels
  Display aspect ratio                     : 16:9
  Original display aspect ratio            : 16:9
  Frame rate mode                          : Constant
  Frame rate                               : 23.976 fps
  Color space                              : YUV
  Chroma subsampling                       : 4:2:0
  Bit depth                                : 8 bits
  Scan type                                : Progressive
  Bits/(Pixel*Frame)                       : 0.037
  Stream size                              : 63.8 MiB (90%)
  Title                                    : Imported with GPAC 0.4.6-DEV
  Writing library                          : x264 core 114 r1900 60ef1f8



 ▼Audio
  ID                                       : 2
  Format                                   : AAC
  Format/Info                              : Advanced Audio Codec
  Format profile                           : HE-AAC / LC
  Codec ID                                 : 40
  Duration                                 : 24mn 30s
  Bit rate mode                            : Variable
  Bit rate                                 : 39.2 Kbps
  Maximum bit rate                         : 48.6 Kbps
  Channel(s)                               : 2 channels
  Channel positions                        : Front: L R
  Sampling rate                            : 48.0 KHz / 24.0 KHz
  Compression mode                         : Lossy
  Stream size                              : 6.87 MiB (10%)



>===========► ENJOY!!	